<svg width="120" height="34" viewBox="0 0 120 34" fill="none" xmlns="http://www.w3.org/2000/svg">
	<path d="M12.689 6.20099C5.68421 6.20099 0 11.8852 0 18.89C0 21.8182 1.03349 24.5168 2.69856 26.6986C2.8134 26.8708 2.98565 27.0431 3.10048 27.1579C3.27273 27.3876 3.50239 27.6173 3.73206 27.8469C6.14354 30.4306 9.24402 32.3828 12.689 33.4163C16.134 32.3828 19.2345 30.4306 21.6459 27.8469C21.8756 27.6173 22.0478 27.3876 22.2775 27.1579C22.3923 26.9857 22.5646 26.8134 22.6794 26.6986C24.3445 24.5742 25.378 21.8756 25.378 18.89C25.378 11.8852 19.6938 6.20099 12.689 6.20099ZM12.689 23.7129C9.99043 23.7129 7.80861 21.5311 7.80861 18.8326C7.80861 16.134 9.99043 13.9522 12.689 13.9522C15.3876 13.9522 17.512 16.134 17.512 18.8326C17.512 21.5311 15.3876 23.7129 12.689 23.7129Z" fill="#FF8A3D" />
	<path d="M16.823 5.91388C17.6842 5.74163 18.3158 4.99521 18.3158 4.07655C18.3158 3.04306 17.4546 2.23923 16.4785 2.23923C16.1914 2.23923 15.9043 2.29665 15.6747 2.41148C15.3302 1.03349 14.1244 0 12.689 0C11.2536 0 10.0479 1.03349 9.76078 2.41148C9.53111 2.29665 9.24403 2.23923 8.95695 2.23923C7.92346 2.23923 7.11963 3.10048 7.11963 4.07655C7.11963 4.99521 7.75121 5.74163 8.61245 5.91388C9.93303 5.45455 11.311 5.22488 12.7464 5.22488C14.1818 5.22488 15.5024 5.45455 16.823 5.91388Z" fill="#56C271" />
	<path d="M34.4497 19.0621H42.2009C43.177 19.0621 43.9234 18.488 43.9234 17.2822C43.9234 16.0765 43.177 15.5023 42.2009 15.5023H35.4258C35.0813 15.5023 34.8516 15.2727 34.8516 14.9856V11.9425C34.8516 11.598 35.0813 11.4258 35.4258 11.4258H42.2009C43.177 11.4258 43.9234 10.8516 43.9234 9.64587C43.9234 8.44013 43.177 7.86597 42.2009 7.86597H34.4497C31.8086 7.86597 30.5454 9.01429 30.5454 11.2535V15.732C30.5454 17.9138 31.8086 19.0621 34.4497 19.0621Z" fill="#FF8A3D" />
	<path d="M44.1531 20.4976H36.5167C33.0718 20.4976 30.8325 22.3923 30.8325 25.1483C30.8325 27.8468 33.0718 29.7416 36.5167 29.7416H44.1531C47.5981 29.7416 49.8947 27.8468 49.8947 25.1483C49.8947 22.3923 47.5981 20.4976 44.1531 20.4976ZM44.1531 26.1818H36.5167C35.6555 26.1818 35.1962 25.7224 35.1962 25.1483C35.1962 24.5167 35.6555 24.0574 36.5167 24.0574H44.1531C45.0143 24.0574 45.4737 24.5167 45.4737 25.1483C45.4737 25.7224 45.0143 26.1818 44.1531 26.1818Z" fill="#FF8A3D" />
	<path d="M50.6412 11.4832H49.4354V9.12915C49.4354 8.09565 48.5742 7.34924 47.2536 7.34924C45.9904 7.34924 45.0718 8.09565 45.0718 9.12915V18.1435C45.0718 19.177 45.9904 19.9234 47.2536 19.9234C48.5168 19.9234 49.4354 19.177 49.4354 18.1435V15.6746H50.6412C51.6172 15.6746 52.4211 14.8134 52.4211 13.5502C52.4211 12.4019 51.6172 11.4832 50.6412 11.4832Z" fill="#FF8A3D" />
	<path d="M72.287 21.0717H54.5454C53.5119 21.0717 52.6506 20.3827 52.6506 19.1196C52.6506 17.9712 53.5119 17.2248 54.5454 17.2248H72.287C73.3205 17.2248 74.1817 17.9712 74.1817 19.1196C74.1817 20.3827 73.3779 21.0717 72.287 21.0717ZM68.6698 14.8134V12.5167C68.6698 12.1148 68.4401 11.8851 68.0956 11.8851H55.7511C54.6602 11.8851 53.799 11.1961 53.799 9.93297C53.799 8.66981 54.7176 7.9234 55.7511 7.9234H69.0143C71.6554 7.9234 72.976 9.30139 72.976 11.7129V14.8708C72.976 15.9043 72.1147 16.6507 70.7942 16.6507C69.4736 16.6507 68.6698 15.8468 68.6698 14.8134ZM58.2774 23.5406V25.0909C58.2774 25.3779 58.5071 25.6076 58.8516 25.6076H71.5406C72.6315 25.6076 73.4927 26.2966 73.4927 27.5598C73.4927 28.8229 72.5741 29.5119 71.5406 29.5119H57.9903C55.3492 29.5119 53.9712 28.421 53.9712 26.0095V23.5406C53.9712 22.5071 54.8325 21.7607 56.153 21.7607C57.3588 21.7607 58.2774 22.5645 58.2774 23.5406Z" fill="#FF8A3D" />
	<path d="M76.4209 25.5502V10.9091C76.4209 8.8995 77.4544 7.86601 79.5214 7.86601H85.2056C87.2726 7.86601 88.3061 8.8995 88.3061 10.9091V25.5502C88.3061 27.5598 87.2726 28.5933 85.2056 28.5933H79.5214C77.397 28.5933 76.4209 27.5598 76.4209 25.5502ZM84.1721 24.1722V12.2871C84.1721 12 83.9998 11.8277 83.7702 11.8277H80.9568C80.7271 11.8277 80.5549 12 80.5549 12.2871V24.1148C80.5549 24.4019 80.7271 24.5741 80.9568 24.5741H83.7702C83.9998 24.6316 84.1721 24.4019 84.1721 24.1722ZM90.8898 27.9043V9.30141C90.8898 8.21051 91.8085 7.40668 93.0716 7.40668C94.3348 7.40668 95.2534 8.26792 95.2534 9.30141V15.3875H96.4592C97.4353 15.3875 98.2391 16.3062 98.2391 17.5119C98.2391 18.7751 97.4353 19.6938 96.4592 19.6938H95.2534V27.9617C95.2534 29.0526 94.3922 29.8564 93.0716 29.8564C91.8085 29.799 90.8898 28.9952 90.8898 27.9043Z" fill="#FF8A3D" />
	<path d="M109.378 12.4593H110.239V9.12916C110.239 8.15309 111.043 7.52151 112.191 7.52151C113.34 7.52151 114.143 8.15309 114.143 9.12916V19.177C114.143 20.1531 113.397 20.7847 112.191 20.7847C110.986 20.7847 110.239 20.0957 110.239 19.1196V16.1914H109.378C108.919 16.1914 108.459 15.9617 108.172 15.5598C106.966 18.2009 104.899 20.3253 101.971 21.6459C101.053 22.0478 100.019 21.8182 99.5023 20.8995C98.9855 19.9808 99.33 18.8899 100.134 18.488C101.454 17.9139 102.545 17.11 103.407 16.1339H101.282C100.478 16.1339 99.7319 15.6746 99.7319 14.5837C99.7319 13.6076 100.421 13.0335 101.282 13.0335H105.014C105.129 12.6316 105.244 12.2296 105.244 11.8277C105.301 11.4832 105.129 11.2536 104.785 11.2536H101.34C100.364 11.2536 99.6745 10.6794 99.6745 9.5885C99.6745 8.49759 100.364 7.86601 101.34 7.86601H105.474C108.23 7.86601 109.493 9.18658 109.091 12.1722C109.091 12.2871 109.091 12.4019 109.033 12.5167C109.206 12.4593 109.263 12.4593 109.378 12.4593ZM117.129 29.3971C114.488 28.8229 111.33 27.3875 109.263 25.7225C107.368 27.6172 104.842 28.9952 102.143 29.5119C101.225 29.6842 100.191 29.2823 99.8468 28.1339C99.5597 27.043 100.076 26.1244 101.053 25.8373C103.981 25.0909 106.392 23.3684 107.598 21.1292C108 20.4402 108.976 19.9808 110.182 20.3253C111.387 20.7272 111.904 21.8756 111.502 22.6794V22.7368C113.225 24.1148 115.694 25.2057 118.163 25.7799C119.081 26.0095 119.655 26.9282 119.368 28.0191C119.081 29.1674 118.048 29.6268 117.129 29.3971ZM115.12 19.8086V9.01433C115.12 8.03826 115.923 7.40668 117.129 7.40668C118.335 7.40668 119.139 8.03826 119.139 9.01433V19.8086C119.139 20.7847 118.335 21.4162 117.129 21.4162C115.923 21.4162 115.12 20.7847 115.12 19.8086Z" fill="#FF8A3D" />
</svg>