<svg width="128" height="128" xmlns="http://www.w3.org/2000/svg" xmlns:xlink="http://www.w3.org/1999/xlink" overflow="hidden"><defs><clipPath id="clip0"><rect x="1116" y="39" width="128" height="128"/></clipPath><clipPath id="clip1"><path d="M1156.71 39.3199 1243.85 79.6 1203.57 166.741 1116.43 126.461Z" fill-rule="evenodd" clip-rule="evenodd"/></clipPath><clipPath id="clip2"><path d="M1156.71 39.3199 1243.85 79.6 1203.57 166.741 1116.43 126.461Z" fill-rule="evenodd" clip-rule="evenodd"/></clipPath><clipPath id="clip3"><path d="M1156.71 39.3199 1243.85 79.6 1203.57 166.741 1116.43 126.461Z" fill-rule="evenodd" clip-rule="evenodd"/></clipPath></defs><g clip-path="url(#clip0)" transform="translate(-1116 -39)"><g clip-path="url(#clip1)"><g clip-path="url(#clip2)"><g clip-path="url(#clip3)"><path d="M1203.45 133.635 1207.22 125.466 1189.5 94.6895 1197.68 76.9891C1199.32 73.449 1199.64 67.9804 1196.92 66.7217 1194.29 65.5049 1190.24 69.2531 1188.6 72.7932L1180.42 90.4937 1145.5 96.9339 1141.72 105.103 1174.13 104.109 1164.98 123.898 1152.25 127.599 1149.74 133.045 1165.87 133.893 1176.97 145.633 1179.49 140.186 1174.06 128.093 1183.21 108.305 1203.45 133.635Z" stroke="#FFFFFF" stroke-width="3" fill="none"/></g></g></g></g></svg>
